PathFileType	4	(X/Y/Z)	Patient4_TMGait_0pt5_02_right_04.trc.trc
DataRate	CameraRate	NumFrames	NumMarkers	Units	OrigDataRate	OrigDataStartFrame	OrigNumFrames
76.923076923077	76.923076923077	4	33	mm	76.923076923077	89	       141
Frame#	Time	Sacral			L.Shoulder			Chest			R.Shoulder			Neck			R.ASIS			L.ASIS			R.Thigh.Superior			R.Thigh.Lateral			R.Thigh.Inferior			R.Patella			L.Thigh.Superior			L.Thigh.Lateral			L.Thigh.Inferior			L.Patella			L.Shank.Superior			L.Shank.Lateral			L.Shank.Inferior			R.Shank.Superior			R.Shank.Lateral			R.Shank.Inferior			R.Heel			R.Midfoot.Superior			R.Midfoot.Lateral			R.Toe			L.Heel			L.Midfoot.Lateral			L.Midfoot.Superior			L.Toe			L.Elbow			L.Wrist			R.Elbow			R.Wrist			
		X1	Y1	Z1	X2	Y2	Z2	X3	Y3	Z3	X4	Y4	Z4	X5	Y5	Z5	X6	Y6	Z6	X7	Y7	Z7	X8	Y8	Z8	X9	Y9	Z9	X10	Y10	Z10	X11	Y11	Z11	X12	Y12	Z12	X13	Y13	Z13	X14	Y14	Z14	X15	Y15	Z15	X16	Y16	Z16	X17	Y17	Z17	X18	Y18	Z18	X19	Y19	Z19	X20	Y20	Z20	X21	Y21	Z21	X22	Y22	Z22	X23	Y23	Z23	X24	Y24	Z24	X25	Y25	Z25	X26	Y26	Z26	X27	Y27	Z27	X28	Y28	Z28	X29	Y29	Z29	X30	Y30	Z30	X31	Y31	Z31	X32	Y32	Z32	X33	Y33	Z33	

89	6.274000000000	556.736163320408	1010.557642734783	469.731183463311	723.980590894630	1435.094828733789	278.887062010327	834.113342091015	1367.342786725034	435.362288437206	758.803711996369	1445.382972182387	611.709052198003	728.497088910922	1496.371254068290	429.410775009172	781.560997408914	944.842892997778	583.391193988959	768.738758082429	957.005617665519	310.163553933553	809.662536081422	736.694867454464	570.972300117645	719.822195547079	633.118241588839	633.493435691015	799.464970809353	569.295024960300	563.530375754946	786.668560826360	463.991380682392	582.331252592700	831.429768662501	761.151634168156	340.265656784561	754.490656602309	637.292342620753	282.539994954014	851.249577787420	569.361784480779	340.591341163186	859.724293832731	498.303694588163	349.008301502553	838.045388053817	424.474832453339	343.471875493115	755.033617320243	302.523265915755	297.704838012976	820.278493956901	197.306935365866	368.129366663141	716.484426098922	394.254967595989	584.411025511364	600.082365609890	339.894114263676	641.227703002431	601.312982595643	230.805286377159	588.406174842095	409.023794715791	132.333551107346	553.474429596981	585.062726834482	115.301465807985	595.321280930198	478.976057234201	87.692230336768	627.196656576041	673.865371234993	32.775428229300	623.341894337310	703.876022622176	37.194799364409	415.189817500473	778.104087059858	34.879642929724	334.350684185907	860.166690035697	97.310627559101	359.764910588721	988.934418891558	48.624233447708	333.817957155663	632.788678238620	1094.481555894915	162.662267632899	695.337540771607	838.892023674453	160.868808127455	823.376028108120	1111.063954733802	732.224686063233	1056.799309347708	1126.821240352930	645.393327323317	
90	6.287000000000	555.791171837673	1010.739928827116	466.838327705343	724.821537018189	1434.681125795564	275.094955440785	833.785325900623	1367.524781320008	432.638734427289	757.296387705992	1446.337705572826	608.174870691852	728.244616682875	1496.675039881007	425.335919983360	780.200464614553	945.295037513696	581.614385041943	768.461926680723	957.082541234297	308.469516913937	813.716205178481	739.147548527350	569.672529111019	727.014940541321	633.728141033424	632.731628549540	808.751775253707	571.250589261769	563.217457266986	797.334105057803	464.528890623660	582.961438641463	829.488416231635	760.195698514851	337.511852058146	751.219638933298	637.239663041452	280.561570206338	847.419990832515	568.635789085185	338.590250994179	855.246340640418	497.691610285986	347.115110732478	833.242757945442	423.961788694994	341.858330888817	749.544433784236	302.252597731575	296.616372215027	814.334161083983	197.016888761170	367.400289689302	725.088765994175	395.507801082212	584.497458244053	606.652542195988	344.932641058029	640.615553679648	604.743977587414	235.778984991900	588.197245353411	409.655584126814	144.801738509995	552.311818836168	584.629844985433	120.213380745654	595.461095085399	477.179855046594	96.946694440012	626.350358172897	669.465214725186	32.855089238840	623.785235442148	697.345752069253	37.171350911148	415.105814402906	771.557710806994	34.792150786301	334.226778483193	853.698582211707	97.167960004703	359.578090727998	982.445979365460	48.383823195229	333.742538908727	637.474562750347	1092.990970334953	158.205015854578	703.727020433773	838.339489335504	157.425264083198	814.739166174945	1110.758386486292	729.764065849829	1049.862071722886	1115.612750381281	645.099021860247	
91	6.300000000000	554.692205989720	1010.881406971693	464.094176307661	725.549305366438	1434.170277733699	271.489434307413	833.330953684534	1367.612078277323	430.110330654811	755.653506572355	1447.177318326412	604.837529727596	727.940989716791	1496.906255149432	421.431711909864	778.772770454256	945.675970000156	580.003611263699	768.018067732133	957.170437996867	306.871896091198	817.663821900460	741.840254050036	568.265700413273	734.338558149049	634.651003613435	632.070778736140	817.994121074378	573.617051611485	562.867348654266	808.132973624002	465.601433243569	583.484267455115	827.433594758126	759.337300211728	335.009198131364	747.968286008227	637.230773933842	278.708586131228	843.567119679597	567.960291143830	336.770421753482	850.728303708788	497.101285721830	345.367649047882	828.412987946317	423.477306580269	340.368280381828	744.054851535481	302.018790780079	295.601795423266	808.392957818719	196.749086143522	366.719910358480	734.041694861771	397.135278210717	584.555435654249	613.740930034202	350.173612118757	639.929813603180	608.848979739765	241.058748398834	587.848332976872	411.377544024501	157.242326297283	550.892317246063	585.095964099441	125.681913134810	595.534236381522	476.429764554878	106.512704805349	625.337094109608	666.070695387339	33.458398036734	624.273487818491	690.823629511269	37.161709057222	415.018701055420	765.023060784125	34.720950297227	334.111494663300	847.244208793074	97.038749090198	359.403746748050	975.964411472867	48.147887147662	333.677736482527	642.679715219543	1091.329260790317	153.812319449013	712.614915399475	837.676577166232	154.072402246557	805.371291918084	1110.372268438592	727.455613458822	1041.709007997496	1103.574040317203	645.102350879863	
92	6.313000000000	553.472563229401	1011.018811837605	461.502460571156	726.120171610461	1433.611656446854	268.094199275837	832.745217950942	1367.653887608497	427.773424622938	753.900306645630	1447.937423475800	601.709074644254	727.580857312016	1497.097494916295	417.728835311811	777.306067771682	946.034364375869	578.530688078439	767.429583926135	957.309333609598	305.346367830589	821.400062357080	744.769308136449	566.734239701844	741.633350663239	635.924214982508	631.484301154553	827.006408609018	576.409717574422	562.450440818538	818.896248022811	467.233739465184	583.883789520157	825.300400211956	758.588112514672	332.736203284218	744.703210808795	637.255913340828	277.012714314494	839.679722377095	567.322128012508	335.123830961043	846.165209448813	496.538644651424	343.800633246725	823.552639983621	423.029177073895	339.031581819775	738.560850194636	301.833839322844	294.686218461740	802.449713132666	196.508990299327	366.106352050079	743.204046690859	399.146072000608	584.578682159079	621.236211063579	355.510676082542	639.188453808020	613.629343500335	246.509461548071	587.390366710273	414.219383816568	169.240492103289	549.304196806199	586.584021028947	131.504364517512	595.521746259728	476.876999693434	116.038233250982	624.206625128422	663.952239114338	34.667523300602	624.750200315844	684.306440038761	37.164120358420	414.929116580296	758.496672223116	34.667149492569	334.006335275572	840.794207939846	96.929718607961	359.244250237208	969.483419306075	47.934325630089	333.617835185260	648.409020884782	1089.548161445084	149.560485560472	721.999917700157	836.959595225013	150.864292747872	795.361583578980	1109.984069721644	725.317793166601	1032.332335120052	1090.698558605281	645.471945028428	
